HIERARCHY
ROOT root
{
	OFFSET 0.000000 0.000000 0.000000
	CHANNELS 6 Xposition Yposition Zposition Zrotation Yrotation Xrotation
	JOINT lhip
	{
		OFFSET 0.058581 -0.082280 -0.017664
		CHANNELS 3 Zrotation Yrotation Xrotation
		JOINT lknee
		{
			OFFSET 0.043451 -0.386469 0.008037
			CHANNELS 3 Zrotation Yrotation Xrotation
			JOINT lankle
			{
				OFFSET -0.014790 -0.426874 -0.037428
				CHANNELS 3 Zrotation Yrotation Xrotation
				JOINT ltoe
				{
					OFFSET 0.041054 -0.060286 0.122042
					CHANNELS 3 Zrotation Yrotation Xrotation
					End Site
					{
						OFFSET 0.000000 0.000000 0.000000
					}
				}
			}
		}
	}
	JOINT rhip
	{
		OFFSET -0.060310 -0.090513 -0.013543
		CHANNELS 3 Zrotation Yrotation Xrotation
		JOINT rknee
		{
			OFFSET -0.043257 -0.383688 -0.004843
			CHANNELS 3 Zrotation Yrotation Xrotation
			JOINT rankle
			{
				OFFSET 0.019056 -0.420046 -0.034562
				CHANNELS 3 Zrotation Yrotation Xrotation
				JOINT rtoe
				{
					OFFSET -0.034840 -0.062106 0.130323
					CHANNELS 3 Zrotation Yrotation Xrotation
					End Site
					{
						OFFSET 0.000000 0.000000 0.000000
					}
				}
			}
		}
	}
	JOINT lowerback
	{
		OFFSET 0.004439 0.124404 -0.038385
		CHANNELS 3 Zrotation Yrotation Xrotation
		JOINT upperback
		{
			OFFSET 0.004488 0.137956 0.026820
			CHANNELS 3 Zrotation Yrotation Xrotation
			JOINT chest
			{
				OFFSET -0.002265 0.056032 0.002855
				CHANNELS 3 Zrotation Yrotation Xrotation
				JOINT lowerneck
				{
					OFFSET -0.013390 0.211636 -0.033468
					CHANNELS 3 Zrotation Yrotation Xrotation
					JOINT upperneck
					{
						OFFSET 0.010113 0.088937 0.050410
						CHANNELS 3 Zrotation Yrotation Xrotation
						End Site
						{
							OFFSET 0.000000 0.000000 0.000000
						}
					}
				}
				JOINT lclavicle
				{
					OFFSET 0.071702 0.114000 -0.018898
					CHANNELS 3 Zrotation Yrotation Xrotation
					JOINT lshoulder
					{
						OFFSET 0.122921 0.045205 -0.019046
						CHANNELS 3 Zrotation Yrotation Xrotation
						JOINT lelbow
						{
							OFFSET 0.255332 -0.015649 -0.022946
							CHANNELS 3 Zrotation Yrotation Xrotation
							JOINT lwrist
							{
								OFFSET 0.265709 0.012698 -0.007375
								CHANNELS 3 Zrotation Yrotation Xrotation
								End Site
								{
									OFFSET 0.000000 0.000000 0.000000
								}
							}
						}
					}
				}
				JOINT rclavicle
				{
					OFFSET -0.082954 0.112472 -0.023707
					CHANNELS 3 Zrotation Yrotation Xrotation
					JOINT rshoulder
					{
						OFFSET -0.113228 0.046853 -0.008472
						CHANNELS 3 Zrotation Yrotation Xrotation
						JOINT relbow
						{
							OFFSET -0.260127 -0.014369 -0.031269
							CHANNELS 3 Zrotation Yrotation Xrotation
							JOINT rwrist
							{
								OFFSET -0.269108 0.006794 -0.006027
								CHANNELS 3 Zrotation Yrotation Xrotation
								End Site
								{
									OFFSET 0.000000 0.000000 0.000000
								}
							}
						}
					}
				}
			}
		}
	}
}
MOTION
Frames: 8
Frame Time: 0.033333
-1.260622 0.794356 0.826726 85.676057 2.842820 101.493788 20.997039 12.493705 -45.074367 -17.130141 -5.789539 56.337878 1.403534 2.989432 -30.076013 0.000000 -0.000000 0.000000 -21.931923 -9.592884 -38.770719 6.394499 12.904837 40.665040 11.268443 4.615894 -24.454632 0.000000 -0.000000 0.000000 -1.161618 1.371690 35.175961 0.643437 -4.475208 -2.912938 -0.226944 -0.690010 6.771962 -6.464172 10.521085 5.595661 9.066615 0.270949 1.838417 -1.633130 -21.688462 -5.894222 -4.926527 -23.464651 -1.925319 -13.272351 -64.368333 18.981960 24.217893 -15.578195 -16.425841 14.825547 13.999608 3.435880 47.275280 1.879576 9.308166 3.438722 29.309886 16.074390 11.870984 8.854338 2.861457 
-1.261524 0.797147 0.822666 86.297193 3.405417 101.878830 21.681120 12.358988 -46.238171 -17.310080 -5.334056 57.037487 1.539156 2.749708 -30.210320 0.000000 -0.000000 0.000000 -21.415730 -9.632985 -39.298303 6.119209 12.700349 41.333874 11.032817 4.311926 -24.630841 0.000000 -0.000000 0.000000 -1.471928 1.564591 35.332778 0.484025 -4.155770 -2.601310 -0.157725 -0.369330 6.402804 -7.067744 9.554606 5.761043 10.042610 0.789309 1.504647 -0.552259 -21.954512 -6.408204 -3.923553 -24.530008 -1.904728 -10.940825 -71.677933 18.471364 22.775059 -15.150015 -19.899672 13.959774 14.464853 3.342231 46.028474 0.409845 9.191692 4.588813 27.510908 18.324565 21.343726 7.777699 4.393554 
-1.262798 0.798847 0.819401 87.140580 3.426385 102.332350 21.744999 11.967690 -47.498833 -17.653116 -5.164948 57.516024 1.750477 2.966799 -30.050538 0.000000 -0.000000 0.000000 -21.501418 -10.071388 -39.751370 6.082220 12.474718 41.980340 11.440708 4.065460 -24.491985 0.000000 -0.000000 0.000000 -1.726879 1.779274 35.680905 0.032585 -3.768380 -2.920515 -0.080958 -0.227879 7.030499 -7.728529 8.645936 4.988179 10.049426 1.236206 0.984348 0.225542 -21.711914 -7.610545 -3.152183 -25.856819 -1.065548 -9.120615 -78.038422 16.315477 22.893399 -14.085230 -22.574995 12.986258 14.783627 2.350973 44.313930 -0.539444 9.632652 5.290547 26.077641 18.091818 27.394041 6.189440 5.911546 
-1.264228 0.798717 0.815814 87.949323 3.418682 102.602536 21.829036 11.745833 -48.690100 -17.971343 -5.158714 58.153026 1.584106 2.831556 -29.928309 0.000000 -0.000000 0.000000 -21.456036 -10.400448 -40.255566 6.006908 12.283646 42.925436 11.659614 3.757040 -24.684262 0.000000 -0.000000 0.000000 -1.762591 2.060726 36.210318 -0.600346 -3.211463 -2.417689 -0.294898 0.403560 6.332041 -8.359688 7.138139 6.098860 11.785697 0.870968 0.872196 0.343262 -21.925454 -7.292989 -2.642549 -26.042398 -0.466880 -0.850275 -85.404671 8.411047 23.937392 -13.364621 -24.142348 12.151074 15.552282 2.547503 41.566893 -1.180310 7.975075 5.684111 24.782818 16.888701 30.852988 4.225020 5.890518 
-1.264311 0.797512 0.813991 88.523315 3.336856 102.741154 21.729700 11.722656 -49.259375 -18.112867 -5.361216 58.345612 1.703237 2.865556 -29.832633 0.000000 -0.000000 0.000000 -21.426539 -10.617813 -40.581931 5.944923 12.094364 43.796085 11.462877 3.514827 -25.030709 0.000000 -0.000000 0.000000 -1.733553 2.072978 36.658799 -1.063651 -2.854178 -2.707884 -0.307820 0.619033 6.177857 -8.662726 6.229835 7.398406 12.378059 1.237556 0.830050 -0.174188 -21.961969 -6.561016 -2.284738 -25.174523 0.535881 58.857030 -89.031520 -50.319975 24.629704 -13.159901 -25.563231 11.843509 16.405381 3.010436 39.467028 -1.095528 6.982781 5.872314 23.388192 16.748293 30.241355 4.029612 7.733177 
-1.264747 0.794908 0.812542 89.249540 3.102438 102.712357 21.919655 11.201246 -49.562429 -18.268649 -5.336715 58.280846 1.530822 2.892592 -29.624689 0.000000 -0.000000 0.000000 -21.549890 -10.874943 -40.596008 5.982462 11.905344 44.481116 11.493711 3.259474 -25.305917 0.000000 -0.000000 0.000000 -1.461819 2.089106 37.226180 -1.715319 -2.214345 -2.550537 -0.623129 0.992593 6.369547 -8.202182 5.354968 7.879364 12.455414 1.021716 0.804584 -1.137895 -21.239324 -6.017979 -1.909724 -24.558837 1.015234 166.966920 -86.187034 -157.715887 23.434826 -13.649673 -26.885485 11.573214 17.036459 2.956352 36.037444 -0.069535 5.646599 5.387490 21.545149 14.115867 27.764366 4.290969 8.546373 
-1.264870 0.791197 0.811252 90.048805 2.740424 103.091725 21.803485 11.084054 -50.311307 -18.397130 -5.519527 58.080059 1.206505 2.487721 -29.278494 0.000000 -0.000000 0.000000 -21.677014 -11.472441 -41.114108 5.944835 11.458437 45.433596 11.529496 3.284974 -25.723773 0.000000 -0.000000 0.000000 -1.091410 2.012266 37.991056 -2.438181 -1.629635 -3.339147 -0.730870 1.314987 6.023773 -8.336612 3.936880 9.485524 13.136943 1.492433 0.588503 -2.540764 -20.606778 -4.667604 -2.816732 -22.875746 2.288139 174.470164 -83.111202 -164.412023 25.240979 -13.207492 -28.099643 11.245459 17.846876 3.935641 32.502049 0.789025 3.210669 5.056156 19.840045 11.725614 23.181504 5.212185 10.393147 
-1.265028 0.786255 0.810571 90.649766 2.380325 102.961936 21.840364 10.840736 -50.294700 -18.556133 -5.828121 57.649440 0.905182 2.479716 -28.965369 0.000000 -0.000000 0.000000 -21.976954 -11.515232 -41.163787 6.086876 10.993497 46.340887 11.388568 2.957182 -26.257183 0.000000 -0.000000 0.000000 -0.808835 2.215207 38.036904 -2.806476 -0.837441 -2.338264 -0.921028 1.751676 6.008924 -7.187910 3.447335 9.765746 12.931974 0.805676 0.575460 -4.025024 -19.649360 -3.667262 -3.452178 -21.455842 3.962950 178.686878 -81.667294 -168.744779 26.152368 -12.897182 -29.019315 10.933232 18.366213 3.744900 27.881124 2.299585 1.701487 4.819948 17.897402 8.976119 16.920506 6.617534 10.997705 
